<?xml version="1.0" encoding="UTF-8" standalone="no"?>
<!-- Created with Inkscape (http://www.inkscape.org/) -->

<svg
        width="48"
        height="48"
        id="svg2"
        sodipodi:version="0.32"
        inkscape:version="0.45"
        version="1.0"
        sodipodi:docname="bold.svg"
        inkscape:output_extension="org.inkscape.output.svg.inkscape"
        inkscape:export-filename="/home/lapo/Desktop/format-text.png"
        inkscape:export-xdpi="90"
        inkscape:export-ydpi="90"
        xmlns:inkscape="http://www.inkscape.org/namespaces/inkscape"
        xmlns:sodipodi="http://sodipodi.sourceforge.net/DTD/sodipodi-0.dtd"
        xmlns:xlink="http://www.w3.org/1999/xlink"
        xmlns="http://www.w3.org/2000/svg"
        xmlns:rdf="http://www.w3.org/1999/02/22-rdf-syntax-ns#"
        xmlns:cc="http://creativecommons.org/ns#"
        xmlns:dc="http://purl.org/dc/elements/1.1/">
    <defs
            id="defs4">
        <linearGradient
                inkscape:collect="always"
                id="linearGradient4248">
            <stop
                    style="stop-color:#ffffff;stop-opacity:1;"
                    offset="0"
                    id="stop4250"/>
            <stop
                    style="stop-color:#ffffff;stop-opacity:0;"
                    offset="1"
                    id="stop4252"/>
        </linearGradient>
        <linearGradient
                inkscape:collect="always"
                id="linearGradient4229">
            <stop
                    style="stop-color:#ffffff;stop-opacity:1;"
                    offset="0"
                    id="stop4231"/>
            <stop
                    style="stop-color:#ffffff;stop-opacity:0;"
                    offset="1"
                    id="stop4233"/>
        </linearGradient>
        <linearGradient
                inkscape:collect="always"
                id="linearGradient4176">
            <stop
                    style="stop-color:#000000;stop-opacity:1;"
                    offset="0"
                    id="stop4178"/>
            <stop
                    style="stop-color:#000000;stop-opacity:0;"
                    offset="1"
                    id="stop4180"/>
        </linearGradient>
        <linearGradient
                id="linearGradient3421">
            <stop
                    style="stop-color:#babdb6;stop-opacity:1"
                    offset="0"
                    id="stop3423"/>
            <stop
                    style="stop-color:#babdb6;stop-opacity:0"
                    offset="1"
                    id="stop3425"/>
        </linearGradient>
        <radialGradient
                inkscape:collect="always"
                xlink:href="#linearGradient4176"
                id="radialGradient5722"
                gradientUnits="userSpaceOnUse"
                gradientTransform="matrix(1.035394,0,0,0.2361709,-0.013369,29.095209)"
                cx="24.174213"
                cy="38.763416"
                fx="24.174213"
                fy="38.763416"
                r="22.22967"/>
        <linearGradient
                inkscape:collect="always"
                xlink:href="#linearGradient3421"
                id="linearGradient5726"
                gradientUnits="userSpaceOnUse"
                gradientTransform="translate(-3,-3)"
                x1="28.216566"
                y1="38.63026"
                x2="20.90625"
                y2="21.48896"/>
        <radialGradient
                inkscape:collect="always"
                xlink:href="#linearGradient4229"
                id="radialGradient5728"
                gradientUnits="userSpaceOnUse"
                gradientTransform="matrix(2.3000978,0,0,1.8146645,120.45454,-4.8277871)"
                cx="-42.750153"
                cy="5.3468766"
                fx="-42.750153"
                fy="5.3468766"
                r="15.500008"/>
        <linearGradient
                inkscape:collect="always"
                xlink:href="#linearGradient4248"
                id="linearGradient5730"
                gradientUnits="userSpaceOnUse"
                gradientTransform="translate(60)"
                x1="-18.296389"
                y1="36.421127"
                x2="-21.478369"
                y2="35.581436"/>
        <radialGradient
                inkscape:collect="always"
                xlink:href="#linearGradient4229"
                id="radialGradient5732"
                gradientUnits="userSpaceOnUse"
                gradientTransform="matrix(1.390496,0,0,0.7351777,79.50039,9.4560091)"
                cx="-49.9375"
                cy="18.890318"
                fx="-49.9375"
                fy="18.890318"
                r="18.5"/>
    </defs>
    <sodipodi:namedview
            id="base"
            pagecolor="#8c86cb"
            bordercolor="#afafaf"
            borderopacity="1"
            inkscape:pageopacity="0"
            inkscape:pageshadow="2"
            inkscape:zoom="1"
            inkscape:cx="26.419277"
            inkscape:cy="73.010869"
            inkscape:document-units="px"
            inkscape:current-layer="layer1"
            width="48px"
            height="48px"
            gridspacingx="0.5px"
            gridspacingy="0.5px"
            inkscape:showpageshadow="false"
            borderlayer="true"
            gridempspacing="2"
            inkscape:window-width="1023"
            inkscape:window-height="797"
            inkscape:window-x="77"
            inkscape:window-y="53"
            showgrid="false"
            showborder="true"
            showguides="false"
            inkscape:guide-bbox="false"
            inkscape:grid-points="true"
            inkscape:grid-bbox="false"
            inkscape:pagecheckerboard="0"
            inkscape:deskcolor="#d1d1d1">
        <sodipodi:guide
                orientation="vertical"
                position="10,0"
                id="guide3217"
                inkscape:locked="false"/>
        <sodipodi:guide
                orientation="horizontal"
                position="0,39.125"
                id="guide3219"
                inkscape:locked="false"/>
        <sodipodi:guide
                orientation="vertical"
                position="23.997436,0"
                id="guide3221"
                inkscape:locked="false"/>
        <sodipodi:guide
                orientation="horizontal"
                position="0,4.125"
                id="guide3544"
                inkscape:locked="false"/>
        <sodipodi:guide
                orientation="horizontal"
                position="0,5"
                id="guide4317"
                inkscape:locked="false"/>
        <sodipodi:guide
                orientation="vertical"
                position="3,0"
                id="guide4887"
                inkscape:locked="false"/>
        <sodipodi:guide
                orientation="vertical"
                position="44.989669,0"
                id="guide4889"
                inkscape:locked="false"/>
        <sodipodi:guide
                orientation="horizontal"
                position="0,28"
                id="guide3281"
                inkscape:locked="false"/>
        <sodipodi:guide
                orientation="horizontal"
                position="0,24.96875"
                id="guide3361"
                inkscape:locked="false"/>
        <sodipodi:guide
                orientation="horizontal"
                position="0,20.948038"
                id="guide3363"
                inkscape:locked="false"/>
        <sodipodi:guide
                orientation="horizontal"
                position="0,9"
                id="guide4351"
                inkscape:locked="false"/>
        <inkscape:page
                x="0"
                y="0"
                width="48"
                height="48"
                id="page2"
                margin="0"
                bleed="0"/>
    </sodipodi:namedview>
    <metadata
            id="metadata7">
        <rdf:RDF>
            <cc:Work
                    rdf:about="">
                <dc:format>image/svg+xml</dc:format>
                <dc:type
                        rdf:resource="http://purl.org/dc/dcmitype/StillImage"/>
                <dc:creator>
                    <cc:Agent>
                        <dc:title>Lapo Calamandrei</dc:title>
                    </cc:Agent>
                </dc:creator>
                <cc:license
                        rdf:resource="http://creativecommons.org/licenses/GPL/2.0/"/>
            </cc:Work>
            <cc:License
                    rdf:about="http://creativecommons.org/licenses/GPL/2.0/">
                <cc:permits
                        rdf:resource="http://web.resource.org/cc/Reproduction"/>
                <cc:permits
                        rdf:resource="http://web.resource.org/cc/Distribution"/>
                <cc:requires
                        rdf:resource="http://web.resource.org/cc/Notice"/>
                <cc:permits
                        rdf:resource="http://web.resource.org/cc/DerivativeWorks"/>
                <cc:requires
                        rdf:resource="http://web.resource.org/cc/ShareAlike"/>
                <cc:requires
                        rdf:resource="http://web.resource.org/cc/SourceCode"/>
            </cc:License>
        </rdf:RDF>
    </metadata>
    <g
            inkscape:label="Livello 1"
            inkscape:groupmode="layer"
            id="layer1"
            style="display:inline">
        <ellipse
                id="path4166"
                style="color:#000000;display:inline;overflow:visible;visibility:visible;opacity:0.5;fill:url(#radialGradient5722);fill-opacity:1;fill-rule:nonzero;stroke:none;stroke-width:1.02531;stroke-linecap:round;stroke-linejoin:round;stroke-miterlimit:4;stroke-dasharray:none;stroke-dashoffset:0;stroke-opacity:0.960784;marker:none;marker-start:none;marker-mid:none;marker-end:none;enable-background:accumulate"
                cx="25.016466"
                cy="38.25"
                rx="23.016466"
                ry="5.2500005"/>
        <path
                sodipodi:nodetypes="ccccccsscscccczcccccccccsscssc"
                id="text3336"
                d="m 39.5,19 c 3.7e-5,4.72492 0,16.5 0,16.5 h 4 v 4 h -16 v -4 c -1.560783,1.74844 -3.222989,2.91853 -5.140468,3.75112 C 20.44201,40.08371 18.256951,40.5 15.804347,40.5 12.17,40.5 10.371786,39.59456 8.409698,37.78368 6.469895,35.95198 5.499997,33.33973 5.5,29.94692 5.499997,26.2211 6.893529,23.43192 9.680601,21.5794 12.489957,19.7269 15.358959,18.50002 21,18.5 h 6.5 V 15 c 0,-3.5 -4,-4.5 -8,-4.5 -4,0 -7.088749,1.60142 -8.363637,6 H 7.5 v -8 c 4.358867,-1.4477 8.950339,-1.93512 13.521738,-2 6.354489,3e-5 11.003315,1.10321 13.94649,3.30955 C 37.933632,12.01594 39.499963,14.27508 39.5,19 Z m -12,10 v -6.5 h -4.44816 c -2.207377,2e-5 -3.824991,0.57807 -5.00669,1.70205 -1.181732,1.12401 -1.77259,2.73716 -1.772575,4.83943 -1.5e-5,2.1023 0.423618,3.67381 1.270903,4.71454 0.869548,1.04074 2.185043,1.56111 3.946489,1.56111 1.828295,0 3.299864,-0.562 4.414714,-1.686 C 27.019483,32.50715 27.499973,30.85252 27.5,29 Z"
                style="font-style:normal;font-weight:bold;font-size:6.83955px;font-family:'Bitstream Vera Sans Mono';fill:#4d4d4d;fill-opacity:1;stroke:#2e3436;stroke-width:1px;stroke-linecap:butt;stroke-linejoin:round;stroke-opacity:1"/>
        <path
                sodipodi:nodetypes="ccccssscccccscsscsccccccscc"
                id="path3092"
                d="M 21.03125,7.5 C 16.76025,7.56062 12.52531,8.07522 8.5,9.3125 V 15.5 h 2 C 11.22118,13.53106 12.26568,11.96255 13.71875,11 15.36392,9.9102 17.36531,9.5 19.5,9.5 c 2.084108,0 4.181588,0.24078 5.90625,1.03125 C 27.130912,11.32172 28.5,12.86551 28.5,15 v 3.5 c -0.0051,0.55016 -0.449841,0.9949 -1,1 H 21 c -5.49299,2e-5 -8.03067,1.14437 -10.75,2.9375 -2.53124,1.68248 -3.75,4.02708 -3.75,7.5 0,3.20114 0.88149,5.50817 2.59375,7.125 1.85832,1.71512 3.25248,2.4375 6.71875,2.4375 2.33809,0 4.383485,-0.41777 6.15625,-1.1875 1.794544,-0.77921 3.306503,-1.84794 4.78125,-3.5 0.2824,-0.30495 0.722851,-0.40563 1.109694,-0.25365 C 28.246536,34.71082 28.500681,35.08438 28.5,35.5 v 3 h 14 v -2 h -3 c -0.550159,-0.0051 -0.994902,-0.44984 -1,-1 0,0 3.7e-5,-11.7751 0,-16.5 -3.5e-5,-4.50194 -1.287451,-6.26374 -4.125,-8.375 C 31.709626,8.62692 27.268615,7.50003 21.03125,7.5 Z"
                style="font-style:normal;font-weight:bold;font-size:6.83955px;font-family:'Bitstream Vera Sans Mono';opacity:0.15;fill:none;fill-opacity:1;stroke:#ffffff;stroke-width:1px;stroke-linecap:butt;stroke-linejoin:miter;stroke-opacity:1"/>
        <path
                sodipodi:nodetypes="ccccssccssc"
                id="path3404"
                d="M 23.0625,21.5 H 27.5 c 0.550159,0.0051 0.994902,0.44984 1,1 V 29 c -3e-5,2.02646 -0.514514,3.97206 -1.875,5.34375 -1.306994,1.31772 -3.089317,1.96876 -5.125,1.96875 -1.960758,1e-5 -3.660302,-0.60201 -4.75,-1.90625 -1.61e-4,-0.01042 -1.61e-4,-0.02083 0,-0.03125 -1.063336,-1.30611 -1.468766,-3.11255 -1.46875,-5.34375 -1.6e-5,-2.28417 0.647497,-4.21661 2.0625,-5.5625 1.397977,-1.32969 3.339607,-1.96873 5.71875,-1.96875 z"
                style="font-style:normal;font-weight:bold;font-size:6.83955px;font-family:'Bitstream Vera Sans Mono';fill:none;fill-opacity:1;stroke:url(#linearGradient5726);stroke-width:1px;stroke-linecap:butt;stroke-linejoin:miter;stroke-opacity:1"/>
        <path
                sodipodi:nodetypes="cscccc"
                id="path4226"
                d="m 38.5,35.5 c 0,0 3.7e-5,-11.7751 0,-16.5 -3.5e-5,-4.50194 -1.287451,-6.26374 -4.125,-8.375 C 31.709626,8.62692 27.268615,7.50003 21.03125,7.5 16.760252,7.56062 12.525309,8.07522 8.5,9.3125 V 15.5"
                style="font-style:normal;font-weight:bold;font-size:6.83955px;font-family:'Bitstream Vera Sans Mono';display:inline;opacity:0.55;fill:none;fill-opacity:1;stroke:url(#radialGradient5728);stroke-width:1;stroke-linecap:round;stroke-linejoin:miter;stroke-miterlimit:4;stroke-dasharray:none;stroke-opacity:1"/>
        <path
                sodipodi:nodetypes="ccc"
                id="path4237"
                d="m 42.5,36.5 h -3 c -0.550159,-0.0051 -0.994902,-0.44984 -1,-1"
                style="font-style:normal;font-weight:bold;font-size:6.83955px;font-family:'Bitstream Vera Sans Mono';display:inline;opacity:0.45;fill:none;fill-opacity:1;stroke:url(#linearGradient5730);stroke-width:1;stroke-linecap:round;stroke-linejoin:miter;stroke-miterlimit:4;stroke-dasharray:none;stroke-opacity:1"/>
        <path
                sodipodi:nodetypes="ccccsc"
                id="path4239"
                d="m 28.5,18.5 c -0.0051,0.55016 -0.449841,0.9949 -1,1 H 21 c -5.492988,2e-5 -8.030674,1.14437 -10.75,2.9375 -2.531244,1.68248 -3.750003,4.02708 -3.75,7.5 -3e-6,3.20114 0.881488,5.50817 2.59375,7.125"
                style="font-style:normal;font-weight:bold;font-size:6.83955px;font-family:'Bitstream Vera Sans Mono';display:inline;opacity:0.55;fill:none;fill-opacity:1;stroke:url(#radialGradient5732);stroke-width:1;stroke-linecap:round;stroke-linejoin:miter;stroke-miterlimit:4;stroke-dasharray:none;stroke-opacity:1"/>
        <path
                style="fill:#4d4d4d;stroke-width:0.0414242"
                d="M 14.672466,38.949434 C 12.469907,38.810925 11.091814,38.223628 9.5539281,36.768083 8.6206792,35.884802 8.01475,34.952361 7.6020072,33.764349 7.0296355,32.116871 6.8667997,29.849116 7.1859471,27.970035 7.5558687,25.792005 8.622427,24.17199 10.53722,22.879726 c 2.4306,-1.640374 4.735156,-2.468732 7.582391,-2.725442 0.291682,-0.0263 0.60988,-0.05986 0.707107,-0.07458 0.09723,-0.01472 2.175458,-0.03916 4.618291,-0.0543 l 4.441515,-0.02754 0.250301,-0.122918 c 0.320741,-0.157509 0.594737,-0.431124 0.739899,-0.738869 l 0.114654,-0.243068 0.01298,-2.143417 c 0.01415,-2.336952 -0.007,-2.638497 -0.234209,-3.333596 -0.148324,-0.453832 -0.493154,-1.11905 -0.77137,-1.488067 -0.301432,-0.399809 -0.970776,-1.0298 -1.395392,-1.313352 -1.505786,-1.005539 -3.6172,-1.5355344 -6.472942,-1.6248014 -2.301294,-0.071936 -4.246579,0.2890118 -5.821523,1.0801824 -0.862058,0.433054 -1.439972,0.860041 -2.111331,1.559942 -0.500966,0.522264 -0.910843,1.078816 -1.306369,1.773856 -0.226963,0.39883 -0.61286,1.205075 -0.718303,1.500729 -0.02428,0.06808 -0.09393,0.07734 -0.5813972,0.07734 H 9.0377086 V 12.336151 9.6904767 L 9.8000581,9.4866642 C 13.440836,8.51331 17.21022,8.0402645 21.310951,8.0420845 c 4.772332,0.00212 8.510883,0.6942367 11.238058,2.0805035 1.052442,0.534974 2.253617,1.41597 3.160523,2.318072 1.307627,1.300699 1.868638,2.48856 2.171034,4.596858 0.06918,0.482339 0.07822,1.347094 0.101198,9.67786 l 0.02523,9.148194 0.114953,0.245085 c 0.144553,0.308189 0.34914,0.542914 0.602747,0.691537 0.349124,0.204601 0.58874,0.233084 1.967096,0.233833 l 1.270582,6.91e-4 v 0.464039 0.464038 h -6.474446 -6.474447 v -1.339901 c 0,-1.488135 -0.01885,-1.623196 -0.279284,-2.001113 -0.179426,-0.260363 -0.485512,-0.47665 -0.817376,-0.577573 -0.138194,-0.04203 -0.257292,-0.08016 -0.264663,-0.08473 -0.0074,-0.0046 0.07461,-0.144818 0.182179,-0.311646 0.519192,-0.805218 0.880918,-1.827268 1.079097,-3.048963 0.07036,-0.433726 0.07795,-0.870143 0.07795,-4.480109 V 22.119187 L 28.8911,21.901737 c -0.152955,-0.331668 -0.371867,-0.568332 -0.68046,-0.735641 l -0.279918,-0.151763 -2.762136,-0.01364 c -1.835553,-0.0091 -2.932627,0.0032 -3.270369,0.03659 -2.177131,0.215185 -3.902757,0.987847 -5.150785,2.306302 -1.061741,1.121657 -1.70875,2.621739 -1.920124,4.451784 -0.06133,0.531024 -0.06074,2.153168 9.97e-4,2.724839 0.387188,3.585238 1.991056,5.554934 5.01882,6.163568 0.371029,0.07458 0.696166,0.101765 1.410277,0.117901 1.036103,0.02341 1.660555,-0.03635 2.425754,-0.232143 0.240359,-0.0615 0.444903,-0.103934 0.454543,-0.0943 0.0096,0.0096 -0.200721,0.159836 -0.467468,0.333769 -2.24363,1.462964 -4.934572,2.191932 -7.981295,2.162112 -0.437523,-0.0043 -0.894932,-0.01404 -1.016466,-0.02168 z"
                id="path1"/>
        <path
                style="fill:#4d4d4d;stroke-width:0.0414242"
                d="m 14.650369,38.949575 c -1.85346,-0.132754 -2.999688,-0.52224 -4.208936,-1.430187 -2.2292263,-1.673785 -3.2071973,-3.634394 -3.3940169,-6.804233 -0.1335416,-2.265851 0.2742731,-4.143771 1.2141075,-5.590767 0.8313515,-1.279973 2.1970044,-2.370755 4.2896214,-3.426233 1.787923,-0.901796 3.294435,-1.312846 5.76734,-1.573614 0.564311,-0.05951 1.467606,-0.07703 5.126524,-0.09945 l 4.441515,-0.02722 0.255468,-0.129445 c 0.30154,-0.152789 0.618453,-0.475535 0.753075,-0.766936 0.09389,-0.203229 0.09665,-0.260175 0.110004,-2.263503 0.0083,-1.249651 -0.0046,-2.212917 -0.03286,-2.457901 C 28.776222,12.684047 27.704274,11.188017 26.030368,10.274391 24.683479,9.539252 22.910123,9.1299937 20.545536,9.0085915 18.111324,8.8836146 16.106899,9.2135403 14.429398,10.0153 c -1.442507,0.689444 -2.627382,1.814431 -3.487707,3.311424 -0.225587,0.392529 -0.635805,1.231282 -0.753163,1.539958 l -0.04378,0.115143 H 9.5912296 9.0377086 V 12.337105 9.6923845 L 9.6232814,9.5315577 C 13.221878,8.5432078 17.166099,8.0402449 21.303714,8.0420813 c 4.781177,0.00212 8.510615,0.6905223 11.230612,2.0730087 0.93954,0.477538 1.823497,1.099164 2.834585,1.993369 1.459024,1.290359 2.245108,2.80227 2.481987,4.773715 0.02775,0.230915 0.06259,0.469564 0.07744,0.530331 0.01485,0.06077 0.03862,4.237116 0.05282,9.280776 l 0.02583,9.170291 0.119492,0.254997 c 0.157791,0.336727 0.493827,0.660484 0.819124,0.789191 0.241949,0.09573 0.323388,0.101587 1.635694,0.117642 l 1.381068,0.01689 v 0.460249 0.460249 h -6.471675 -6.471675 l -0.01382,-1.425262 -0.01382,-1.425262 -0.121012,-0.246229 C 28.66865,34.4556 28.300866,34.14824 27.864425,34.025365 c -0.109381,-0.03079 -0.204884,-0.06007 -0.212229,-0.06506 -0.0073,-0.005 0.06886,-0.13564 0.169336,-0.290341 0.618712,-0.952573 1.043116,-2.323336 1.150597,-3.716254 0.0274,-0.355086 0.04013,-2.017277 0.03226,-4.210611 l -0.01301,-3.623922 -0.114654,-0.243068 C 28.73815,21.58233 28.455259,21.291196 28.153707,21.132025 l -0.222988,-0.117702 -2.695845,-0.0137 c -2.892962,-0.0147 -3.468083,0.01046 -4.372613,0.191338 -1.147395,0.229437 -2.005005,0.564745 -2.853134,1.115516 -1.067075,0.692954 -1.816424,1.529927 -2.363729,2.640127 -0.678799,1.376934 -0.893131,2.523455 -0.849889,4.546303 0.031,1.45043 0.156395,2.264186 0.504804,3.276066 0.750242,2.178912 2.23354,3.449604 4.575779,3.919916 0.436092,0.08757 0.633649,0.1 1.602278,0.100817 1.157854,9.82e-4 1.385959,-0.02242 2.203921,-0.226114 0.239885,-0.05974 0.44458,-0.100189 0.454877,-0.08989 0.04628,0.04628 -1.094386,0.732605 -1.774915,1.06795 -1.656044,0.816052 -3.239229,1.235549 -5.254476,1.392282 -0.520701,0.0405 -1.975388,0.04916 -2.457407,0.01464 z"
                id="path2"/>
        <path
                style="fill:#4d4d4d;stroke-width:0.0414242"
                d="M 14.584077,38.951076 C 12.339672,38.767201 11.043823,38.196778 9.4953591,36.711058 7.9396008,35.218339 7.2122411,33.446654 7.0455568,30.743891 6.9072277,28.500903 7.3255578,26.558398 8.253349,25.135539 c 0.7291953,-1.118292 1.6432044,-1.918322 3.336111,-2.920093 1.836173,-1.086549 3.538664,-1.671095 5.743759,-1.972108 1.324694,-0.180831 1.630667,-0.191749 6.133887,-0.218864 l 4.419418,-0.02661 0.279348,-0.151459 c 0.311256,-0.168759 0.571119,-0.437002 0.724002,-0.747347 0.100596,-0.204206 0.101633,-0.223835 0.115892,-2.194786 0.01562,-2.158906 -0.01577,-2.705051 -0.190067,-3.3065 -0.5151,-1.777502 -1.912823,-3.121285 -4.00936,-3.8546338 -1.421186,-0.497117 -3.148267,-0.7406462 -5.250417,-0.7403416 -1.988225,2.882e-4 -3.477678,0.274198 -4.865071,0.8946841 -2.030946,0.9083043 -3.411738,2.4133233 -4.451805,4.8523253 l -0.09894,0.232019 H 9.5889072 9.0377086 V 12.335686 9.689548 L 9.534893,9.5531741 c 3.681166,-1.0097158 7.589985,-1.512696 11.743062,-1.5110773 5.502603,0.00214 9.660054,0.9165213 12.376224,2.7219872 0.505428,0.335963 1.438637,1.078362 1.914244,1.522846 1.517585,1.418274 2.210918,3.032077 2.372966,5.523322 0.02372,0.36461 0.04207,4.340083 0.04259,9.223359 6.37e-4,6.005026 0.01533,8.649756 0.04891,8.806349 0.06188,0.288508 0.33444,0.6951 0.588081,0.877251 0.384844,0.276374 0.443308,0.285533 1.960329,0.307111 l 1.381068,0.01965 V 37.503386 37.9628 H 35.49117 29.019973 l -0.01571,-1.425262 c -0.01489,-1.350807 -0.02072,-1.436158 -0.11159,-1.633845 -0.190949,-0.415409 -0.611042,-0.769702 -1.039294,-0.876507 -0.115457,-0.02879 -0.209922,-0.05635 -0.209922,-0.06123 0,-0.0049 0.124663,-0.216446 0.277028,-0.470137 0.471735,-0.785446 0.8118,-1.786628 0.991031,-2.917691 0.0727,-0.458757 0.07986,-0.86091 0.07986,-4.481458 v -3.977486 l -0.12207,-0.248572 C 28.7328,21.592648 28.417789,21.274142 28.124821,21.117867 L 27.930718,21.01433 25.345359,21.00051 c -3.35683,-0.01795 -4.035638,0.03256 -5.303301,0.394631 -2.017238,0.576161 -3.553848,1.826221 -4.42113,3.596668 -0.636254,1.298834 -0.87092,2.582088 -0.823951,4.505702 0.03525,1.443661 0.147289,2.190307 0.476396,3.174809 0.763522,2.284025 2.295956,3.595873 4.712532,4.034188 0.522584,0.09479 1.851615,0.131435 2.486832,0.06858 0.435188,-0.04306 0.712966,-0.09493 1.568894,-0.29293 l 0.132582,-0.03067 -0.132582,0.111409 c -0.236531,0.198757 -1.222455,0.769437 -1.834059,1.061605 -1.37193,0.65538 -2.74871,1.04722 -4.375223,1.245214 -0.5731,0.06976 -2.730331,0.1238 -3.248272,0.08137 z"
                id="path3"/>
        <path
                style="fill:#4d4d4d;stroke-width:0.0414242"
                d="M 14.517786,38.951099 C 12.696049,38.754386 11.844062,38.483136 10.773398,37.75899 9.6602163,37.006087 8.6862511,35.980095 8.1285491,34.97286 7.2002962,33.296394 6.8127365,30.762408 7.119734,28.376912 c 0.3089683,-2.400809 1.402903,-4.14968 3.452437,-5.519403 2.241009,-1.497688 4.131372,-2.239933 6.597266,-2.590395 1.442175,-0.204968 1.687487,-0.21441 6.297669,-0.242409 l 4.419418,-0.02684 0.220971,-0.117608 c 0.337449,-0.1796 0.565456,-0.399939 0.732304,-0.707674 l 0.151579,-0.279573 v -2.253903 c 0,-2.519868 -0.01317,-2.664219 -0.3142,-3.443683 -0.282263,-0.730874 -0.639979,-1.27118 -1.23118,-1.859617 C 26.252587,10.147974 24.530976,9.4500038 21.986602,9.1224746 21.336413,9.038778 18.550506,8.9960229 17.987029,9.0610934 16.127822,9.2757953 14.64544,9.7755579 13.426362,10.598652 c -1.264324,0.853645 -2.185771,2.006975 -3.003733,3.759626 l -0.280696,0.60145 -0.5521124,0.01237 -0.552112,0.01237 V 12.337527 9.6905889 L 9.4465047,9.5752267 C 12.252276,8.7834384 15.523248,8.2706493 18.935468,8.0876452 c 1.087936,-0.058348 3.592255,-0.058655 4.600568,-5.632e-4 4.773235,0.2749987 8.225021,1.2513063 10.563711,2.987854 2.220255,1.648605 3.198216,2.999138 3.616387,4.994116 0.251518,1.19992 0.238353,0.673458 0.265676,10.624229 l 0.02518,9.170291 0.132582,0.259068 c 0.176601,0.34508 0.553716,0.692706 0.865568,0.797884 0.204044,0.06882 0.439437,0.08401 1.598257,0.103161 l 1.358971,0.02246 v 0.458327 0.458326 h -6.470701 -6.470702 l -0.01778,-1.403165 c -0.01934,-1.526315 -0.02402,-1.557904 -0.285534,-1.928098 -0.185103,-0.262029 -0.500077,-0.486378 -0.817987,-0.582634 -0.140914,-0.04266 -0.256206,-0.08398 -0.256206,-0.09181 0,-0.0078 0.06697,-0.119037 0.14882,-0.24712 0.539428,-0.84411 0.943628,-1.98553 1.118486,-3.158492 0.06964,-0.467165 0.0779,-0.933852 0.07918,-4.476909 l 0.0014,-3.955379 -0.09631,-0.208474 c -0.135035,-0.292295 -0.466829,-0.630349 -0.759971,-0.774308 l -0.248572,-0.122072 -2.452777,-0.01346 c -2.501712,-0.01373 -3.584386,0.02344 -4.308932,0.147954 -3.720029,0.639271 -5.965476,3.087495 -6.301247,6.870286 -0.06351,0.715533 -0.02889,2.283275 0.06539,2.96101 0.385109,2.768401 1.663691,4.576347 3.795105,5.366371 0.878773,0.325724 1.740499,0.466054 2.866968,0.466882 0.844449,6.2e-4 1.417765,-0.07609 2.512702,-0.336203 0.107943,-0.02564 0.107434,-0.02365 -0.0221,0.08657 -0.189183,0.160971 -1.156262,0.731206 -1.697507,1.000929 -1.325195,0.660394 -2.858354,1.104415 -4.511775,1.306662 -0.557162,0.06815 -2.900008,0.124541 -3.314563,0.07978 z"
                id="path4"/>
        <path
                style="fill:#333333;stroke-width:0.0414242"
                d="M 14.451495,38.951352 C 12.21508,38.71465 11.016119,38.173652 9.5019303,36.717997 8.391831,35.650811 7.7276908,34.485631 7.3582239,32.957037 6.9307936,31.188632 6.9046213,29.053052 7.290448,27.426738 c 0.4573852,-1.927945 1.5296717,-3.41593 3.308869,-4.591637 2.373027,-1.568113 4.365779,-2.314878 7.034158,-2.635983 1.103183,-0.132754 1.570688,-0.146698 5.811534,-0.173346 l 4.441515,-0.02791 0.235886,-0.124239 c 0.30387,-0.160043 0.58913,-0.447047 0.740206,-0.744729 l 0.119715,-0.235887 0.02076,-1.679378 c 0.03492,-2.825235 -0.04081,-3.452152 -0.539203,-4.463612 C 28.12145,12.055066 27.727591,11.550848 27.136113,11.050208 25.430518,9.6065519 22.799392,8.9467283 19.072795,9.0281197 17.548942,9.0614016 16.623563,9.2114875 15.433864,9.6183128 13.130036,10.406122 11.597553,11.850434 10.446305,14.318912 l -0.298863,0.640816 -0.5548666,0.01237 -0.5548668,0.01237 V 12.337527 9.6905889 L 9.4465047,9.5758458 C 13.095806,8.5515395 17.049744,8.0403834 21.310322,8.0421186 c 4.36976,0.00178 7.832408,0.5722161 10.53158,1.7349724 1.982563,0.854053 4.087047,2.558919 5.006969,4.056199 0.530338,0.863189 0.832006,1.787246 1.031409,3.15937 0.07955,0.547402 0.09653,2.447131 0.11592,12.97099 l 0.01079,5.855728 0.117574,0.250809 c 0.150172,0.320345 0.413325,0.605354 0.706022,0.76466 0.20282,0.110388 0.296833,0.129588 0.786144,0.160549 0.305676,0.01934 0.958494,0.0361 1.450706,0.03724 l 0.894932,0.0021 v 0.464039 0.464038 h -6.468551 -6.468551 l -0.02016,-1.40418 c -0.01992,-1.387662 -0.02147,-1.407052 -0.131898,-1.64825 -0.199921,-0.436684 -0.505578,-0.703556 -0.99155,-0.865731 -0.118858,-0.03966 -0.22222,-0.07701 -0.229694,-0.08299 -0.0075,-0.006 0.05452,-0.11745 0.137772,-0.247715 0.452276,-0.70772 0.822594,-1.668015 1.028677,-2.667526 0.159362,-0.772908 0.182271,-1.498866 0.177117,-5.61266 l -0.0042,-3.314563 -0.110485,-0.220971 C 28.737401,21.61134 28.386423,21.25937 28.107447,21.122642 l -0.220971,-0.108298 -2.276,-0.01384 c -2.379099,-0.01447 -3.770797,0.03146 -4.441682,0.146586 -0.921375,0.158113 -1.589837,0.365201 -2.345925,0.726762 -2.206222,1.055015 -3.528586,2.925559 -3.938189,5.570748 -0.09482,0.612326 -0.107102,2.62661 -0.02035,3.33666 0.265511,2.173135 1.091771,3.818123 2.415543,4.809061 0.437651,0.327614 1.270474,0.734411 1.856155,0.90665 0.789782,0.232261 1.222727,0.285965 2.342292,0.290542 1.072647,0.0044 1.363297,-0.02536 2.180664,-0.223197 0.251401,-0.06085 0.465444,-0.102281 0.475653,-0.09207 0.02626,0.02625 -0.420893,0.331373 -0.882345,0.60208 -1.707266,1.001557 -3.514001,1.590898 -5.574671,1.81841 -0.4441,0.04903 -2.895894,0.09359 -3.226175,0.05864 z"
                id="path5"/>
    </g>
</svg>
