<?xml version="1.0" encoding="UTF-8" standalone="no"?>
<svg xmlns="http://www.w3.org/2000/svg" xmlns:xlink="http://www.w3.org/1999/xlink" width="48" height="48" version="1.0">
  <defs>
    <linearGradient id="f">
      <stop offset="0" stop-color="#fff" stop-opacity="0"/>
      <stop offset="1" stop-color="#fff"/>
    </linearGradient>
    <linearGradient id="b">
      <stop offset="0" stop-color="#fff"/>
      <stop offset="1" stop-color="#fff" stop-opacity="0"/>
    </linearGradient>
    <linearGradient id="d">
      <stop offset="0" stop-color="#fff"/>
      <stop offset="1" stop-color="#fff" stop-opacity="0"/>
    </linearGradient>
    <linearGradient id="a">
      <stop offset="0" stop-color="#555753"/>
      <stop offset="1" stop-color="#888a85"/>
    </linearGradient>
    <linearGradient id="e">
      <stop offset="0"/>
      <stop offset="1" stop-opacity="0"/>
    </linearGradient>
    <linearGradient id="c">
      <stop offset="0" stop-color="#babdb6"/>
      <stop offset="1" stop-color="#555753"/>
    </linearGradient>
    <linearGradient xlink:href="#a" id="h" x1="75.962296" x2="84.388786" y1="17.526583" y2="52.958019" gradientTransform="translate(69.394547)" gradientUnits="userSpaceOnUse"/>
    <linearGradient xlink:href="#b" id="j" x1="145.31044" x2="142.30525" y1="33.41592" y2="31.533039" gradientTransform="translate(10)" gradientUnits="userSpaceOnUse"/>
    <linearGradient xlink:href="#c" id="k" x1="133.16072" x2="129.729" y1="31.107067" y2="11.313666" gradientUnits="userSpaceOnUse"/>
    <linearGradient xlink:href="#d" id="m" x1="128.99229" x2="134.42435" y1="9.5507469" y2="17.149347" gradientTransform="matrix(1.00872 0 0 .99135 10 0)" gradientUnits="userSpaceOnUse"/>
    <radialGradient xlink:href="#e" id="g" cx="24.174213" cy="38.763416" r="22.22967" fx="24.174213" fy="38.763416" gradientTransform="matrix(1 0 0 .2326 0 29.746876)" gradientUnits="userSpaceOnUse"/>
    <radialGradient xlink:href="#f" id="i" cx="137.56113" cy="29.419594" r="14.90584" fx="137.56113" fy="29.419594" gradientTransform="matrix(.34183 0 0 .34396 99.93873 19.483879)" gradientUnits="userSpaceOnUse"/>
    <radialGradient xlink:href="#d" id="l" cx="143.15497" cy="8.3315935" r="3.3585801" fx="143.15497" fy="8.3315935" gradientTransform="matrix(1.79655 0 0 1.4152 -103.64395 -2.8328887)" gradientUnits="userSpaceOnUse"/>
  </defs>
  <g transform="translate(-120)">
    <path fill="url(#g)" d="M46.403883 38.763416a22.22967 5.1707182 0 1 1-44.4593392 0 22.22967 5.1707182 0 1 1 44.4593392 0z" color="#000" opacity=".35" overflow="visible" style="marker:none" transform="matrix(.90044 0 0 1.11203 120.24906 -5.3561271)"/>
    <path fill="none" stroke="#2e3436" stroke-linejoin="round" stroke-width="2" d="m156.63352 9.078512-6.35203 22.085522-.71664 2.964281c-.06518.282316-.09775.521196-.09773.716639-.00002.347465.10856.651493.32575.912086.1737.19545.39087.293174.65149.293171.28229.000003.65146-.173728 1.10753-.521192.84691-.62977 1.97616-1.93275 3.38775-3.908942l1.10754.781788c-1.49846 2.258504-3.04032 3.984952-4.62559 5.179348-1.58531 1.172683-3.05117 1.759023-4.39756 1.759024-.93382-.000001-1.6396-.23888-2.11734-.716639-.45606-.456043-.68408-1.129249-.68406-2.01962-.00002-1.064098.23886-2.464801.71664-4.202113l.68406-2.443088c-2.84486 3.713499-5.46168 6.3086-7.85046 7.785309-1.7156 1.0641-3.39862 1.59615-5.04905 1.596151-1.5853-.000001-2.95343-.65149-4.10439-1.954471-1.15097-1.324694-1.72645-3.138007-1.72645-5.439944 0-3.452889 1.03153-7.090372 3.09458-10.912463 2.08476-3.843771 4.7233-6.916631 7.91561-9.218588 2.49736-1.824144 4.85359-2.7362295 7.06867-2.736259 1.32468.0000295 2.42135.3474906 3.29003 1.042385.89034.69495 1.56355 1.845915 2.01962 3.452898l1.17268-3.7134946 5.17935-.7817884m-11.59653 1.693875c-1.38987.000028-2.86658.651517-4.43014 1.954471-2.21508 1.845913-4.19126 4.58217-5.92856 8.208778-1.7156 3.626643-2.57339 6.905808-2.57338 9.837504-.00001 1.476717.36917 2.649399 1.10753 3.518047.73835.846941 1.58528 1.270409 2.54081 1.270406 2.36707.000003 4.94045-1.748161 7.72016-5.244497 3.71347-4.647284 5.57022-9.414017 5.57024-14.300212-.00002-1.845865-.35834-3.181419-1.07495-4.006666-.71667-.825193-1.6939-1.237803-2.93171-1.237831" font-family="Bitstream Vera Serif" font-size="14.29555988" font-weight="700" transform="scale(1.00872 .99135)"/>
    <path fill="url(#h)" d="m156.63352 9.0785158-6.35203 22.0855222-.71664 2.96428c-.06518.282317-.09775.521197-.09773.71664-.00002.347465.10856.651493.32575.912086.1737.19545.39087.293173.65149.293171.28229.000002.65146-.173728 1.10753-.521192.84691-.629771 1.97616-1.93275 3.38775-3.908942l1.10754.781788c-1.49846 2.258504-3.04032 3.984951-4.62559 5.179348-1.58531 1.172683-3.05117 1.759023-4.39756 1.759024-.93382-.000001-1.6396-.23888-2.11734-.716639-.45606-.456043-.68408-1.129249-.68406-2.01962-.00002-1.064098.23886-2.464801.71664-4.202113l.68406-2.443089c-2.84486 3.7135-5.46168 6.308601-7.85046 7.78531-1.7156 1.0641-3.39862 1.59615-5.04905 1.596151-1.5853-.000001-2.95343-.65149-4.10439-1.954471-1.15097-1.324694-1.72645-3.138007-1.72645-5.439944 0-3.452889 1.03153-7.090373 3.09458-10.912463 2.08476-3.843771 4.7233-6.916631 7.91561-9.218588 2.49736-1.8241442 4.85359-2.7362297 7.06867-2.7362592 1.32468.0000295 2.42135.3474907 3.29003 1.0423842.89034.694951 1.56355 1.845916 2.01962 3.452899l1.17268-3.7134948 5.17935-.7817884m-11.59653 1.6938752c-1.38987.000027-2.86658.651517-4.43014 1.954471-2.21508 1.845913-4.19126 4.582169-5.92856 8.208778-1.7156 3.626643-2.57339 6.905808-2.57338 9.837503-.00001 1.476718.36917 2.649399 1.10753 3.518048.73835.846941 1.58528 1.270409 2.54081 1.270406 2.36707.000003 4.94045-1.748161 7.72016-5.244497 3.71347-4.647285 5.57022-9.414017 5.57024-14.300212-.00002-1.845865-.35834-3.181419-1.07495-4.006666-.71667-.825193-1.6939-1.237804-2.93171-1.237831" font-family="Bitstream Vera Serif" font-size="14.29555988" font-weight="700" transform="scale(1.00872 .99135)"/>
    <path fill="none" stroke="url(#i)" stroke-linecap="round" d="m147.37561 29.83348-.69349 2.41642c-.47538 1.69878-.69352 3.04605-.6935 4.02736-.00002.79821.19204 1.33499.53588 1.67291.36633.36003.94013.55763 1.79679.55763 1.21639 0 2.58343-.518 4.12947-1.64192 1.44076-1.06683 2.85681-2.64334 4.25555-4.64696l-.31522-.18588c-1.28063 1.71915-2.37894 2.95939-3.24684 3.59365-.49178.36821-.88703.61959-1.38699.61959-.41137.00001-.79103-.2201-1.04025-.49567-.29249-.34492-.44132-.77462-.44131-1.20821-.00003-.24132.05357-.52779.12609-.83646l.72502-2.94307 6.17843-21.128175-4.16099.588615-1.07177 3.37679c-.07177.20087-.2679.33272-.4844.32562-.21651-.00709-.40327-.15148-.46127-.3566-.44121-1.52783-1.10255-2.55484-1.89136-3.15993-.77949-.61282-1.74235-.898386-2.99465-.898414-2.10092.000028-4.37856.835054-6.84041 2.602294-3.15637 2.23684-5.77767 5.19966-7.84914 8.95314-2.05149 3.73521-3.05769 7.26902-3.05769 10.59507 0 2.19749.56903 3.87023 1.63918 5.08068 1.08841 1.21095 2.29088 1.76584 3.75119 1.76584 1.55874 0 3.1519-.4684 4.82296-1.48702 2.32801-1.41437 4.97033-3.96836 7.81761-7.62102" font-family="Bitstream Vera Serif" font-size="14.29555988" font-weight="700" opacity=".17000002"/>
    <path fill="none" stroke="url(#j)" stroke-linecap="round" d="m156.70631 32.218917-.31522-.185878c-1.28063 1.719152-2.37894 2.959389-3.24684 3.593648-.49178.368217-.88703.619595-1.38699.619595-.41137.000003-.79103-.220101-1.04025-.495676-.29249-.344911-.44132-.774611-.44131-1.208209-.00003-.241317.05357-.527785.12609-.836453" font-family="Bitstream Vera Serif" font-size="14.29555988" font-weight="700" opacity=".5"/>
    <path fill="none" stroke="url(#k)" stroke-linejoin="round" d="M135.125 10.25c-1.55624.00003-3.15405.706511-4.78125 2.0625-2.29654 1.913794-4.33281 4.699033-6.09375 8.375a.54264722.54264722 0 0 0 0 .03125c-1.74044 3.679146-2.59375 7.025519-2.59375 10.0625 0 1.57214.41779 2.864705 1.25 3.84375.81205.931493 1.81631 1.468754 2.9375 1.46875 2.63709.000004 5.32973-1.882282 8.15625-5.4375 3.77157-4.720005 5.65623-9.600887 5.65625-14.625-.00002-1.914152-.33299-3.390966-1.1875-4.375-.82253-.947091-1.99007-1.40622-3.34375-1.40625z" font-family="Bitstream Vera Serif" font-size="14.29555988" font-weight="700" transform="matrix(1.00872 0 0 .99135 10 0)"/>
    <path fill="none" stroke="url(#l)" stroke-linecap="round" d="m157.30524 9.634695-4.16099.588615-1.07177 3.376791" font-family="Bitstream Vera Serif" font-size="14.29555988" font-weight="700" opacity=".45"/>
    <path fill="none" stroke="url(#m)" stroke-linecap="round" d="M151.12681 13.569121c-.44121-1.527833-1.10255-2.554844-1.89136-3.159932-.77949-.612819-1.74235-.898385-2.99465-.898413-2.10092.000028-4.37856.835056-6.84041 2.602298-3.15637 2.236833-5.77767 5.199659-7.84914 8.953141-2.05149 3.735204-3.05769 7.269015-3.05769 10.595067 0 2.197488.56903 3.870225 1.63918 5.080676" font-family="Bitstream Vera Serif" font-size="14.29555988" font-weight="700" opacity=".45"/>
  </g>
</svg>