<?xml version="1.0" encoding="UTF-8" standalone="no"?>
<svg
        width="48"
        height="48"
        version="1.0"
        id="svg19"
        xmlns:xlink="http://www.w3.org/1999/xlink"
        xmlns="http://www.w3.org/2000/svg"
>
    <defs
            id="defs12">
        <linearGradient
                id="f">
            <stop
                    offset="0"
                    stop-color="#fff"
                    stop-opacity="0"
                    id="stop1"/>
            <stop
                    offset="1"
                    stop-color="#fff"
                    id="stop2"/>
        </linearGradient>
        <linearGradient
                id="b">
            <stop
                    offset="0"
                    stop-color="#fff"
                    id="stop3"/>
            <stop
                    offset="1"
                    stop-color="#fff"
                    stop-opacity="0"
                    id="stop4"/>
        </linearGradient>
        <linearGradient
                id="d">
            <stop
                    offset="0"
                    stop-color="#fff"
                    id="stop5"/>
            <stop
                    offset="1"
                    stop-color="#fff"
                    stop-opacity="0"
                    id="stop6"/>
        </linearGradient>
        <linearGradient
                id="a">
            <stop
                    offset="0"
                    stop-color="#555753"
                    id="stop7"/>
            <stop
                    offset="1"
                    stop-color="#888a85"
                    id="stop8"/>
        </linearGradient>
        <linearGradient
                id="e">
            <stop
                    offset="0"
                    id="stop9"/>
            <stop
                    offset="1"
                    stop-opacity="0"
                    id="stop10"/>
        </linearGradient>
        <linearGradient
                id="c">
            <stop
                    offset="0"
                    stop-color="#babdb6"
                    id="stop11"/>
            <stop
                    offset="1"
                    stop-color="#555753"
                    id="stop12"/>
        </linearGradient>
        <linearGradient
                xlink:href="#a"
                id="h"
                x1="75.962296"
                x2="84.388786"
                y1="17.526583"
                y2="52.958019"
                gradientTransform="translate(69.394547)"
                gradientUnits="userSpaceOnUse"/>
        <linearGradient
                xlink:href="#b"
                id="j"
                x1="145.31044"
                x2="142.30525"
                y1="33.41592"
                y2="31.533039"
                gradientTransform="translate(10)"
                gradientUnits="userSpaceOnUse"/>
        <linearGradient
                xlink:href="#c"
                id="k"
                x1="133.16072"
                x2="129.729"
                y1="31.107067"
                y2="11.313666"
                gradientUnits="userSpaceOnUse"/>
        <linearGradient
                xlink:href="#d"
                id="m"
                x1="128.99229"
                x2="134.42435"
                y1="9.5507469"
                y2="17.149347"
                gradientTransform="matrix(1.00872,0,0,0.99135,10,0)"
                gradientUnits="userSpaceOnUse"/>
        <radialGradient
                xlink:href="#e"
                id="g"
                cx="24.174213"
                cy="38.763416"
                r="22.22967"
                fx="24.174213"
                fy="38.763416"
                gradientTransform="matrix(1,0,0,0.2326,0,29.746876)"
                gradientUnits="userSpaceOnUse"/>
        <radialGradient
                xlink:href="#f"
                id="i"
                cx="137.56113"
                cy="29.419594"
                r="14.90584"
                fx="137.56113"
                fy="29.419594"
                gradientTransform="matrix(0.34183,0,0,0.34396,99.93873,19.483879)"
                gradientUnits="userSpaceOnUse"/>
        <radialGradient
                xlink:href="#d"
                id="l"
                cx="143.15497"
                cy="8.3315935"
                r="3.3585801"
                fx="143.15497"
                fy="8.3315935"
                gradientTransform="matrix(1.79655,0,0,1.4152,-103.64395,-2.8328887)"
                gradientUnits="userSpaceOnUse"/>
        <filter
                style="color-interpolation-filters:sRGB"
                id="filter19"
                x="0"
                y="-0.028733903"
                width="1"
                height="1.0287339">
            <feColorMatrix
                    values="0.2 0.2 0.2 0.3 0 0.2 0.2 0.2 0.3 0 0.2 0.2 0.2 0.3 0 0 0 0 1 0 "
                    id="feColorMatrix19"/>
        </filter>
    </defs>
    <g
            transform="translate(-120)"
            id="g19"
            style="filter:url(#filter19)">
        <path
                fill="url(#g)"
                d="m 46.403883,38.763416 a 22.22967,5.1707182 0 1 1 -44.4593392,0 22.22967,5.1707182 0 1 1 44.4593392,0 z"
                color="#000000"
                opacity="0.35"
                overflow="visible"
                style="fill:url(#g);marker:none"
                transform="matrix(0.90044,0,0,1.11203,120.24906,-5.3561271)"
                id="path12"/>
        <path
                fill="none"
                stroke="#2e3436"
                stroke-linejoin="round"
                stroke-width="2"
                d="m 156.63352,9.078512 -6.35203,22.085522 -0.71664,2.964281 c -0.0652,0.282316 -0.0978,0.521196 -0.0977,0.716639 -2e-5,0.347465 0.10856,0.651493 0.32575,0.912086 0.1737,0.19545 0.39087,0.293174 0.65149,0.293171 0.28229,3e-6 0.65146,-0.173728 1.10753,-0.521192 0.84691,-0.62977 1.97616,-1.93275 3.38775,-3.908942 l 1.10754,0.781788 c -1.49846,2.258504 -3.04032,3.984952 -4.62559,5.179348 -1.58531,1.172683 -3.05117,1.759023 -4.39756,1.759024 -0.93382,-1e-6 -1.6396,-0.23888 -2.11734,-0.716639 -0.45606,-0.456043 -0.68408,-1.129249 -0.68406,-2.01962 -2e-5,-1.064098 0.23886,-2.464801 0.71664,-4.202113 l 0.68406,-2.443088 c -2.84486,3.713499 -5.46168,6.3086 -7.85046,7.785309 -1.7156,1.0641 -3.39862,1.59615 -5.04905,1.596151 -1.5853,-1e-6 -2.95343,-0.65149 -4.10439,-1.954471 -1.15097,-1.324694 -1.72645,-3.138007 -1.72645,-5.439944 0,-3.452889 1.03153,-7.090372 3.09458,-10.912463 2.08476,-3.843771 4.7233,-6.916631 7.91561,-9.218588 2.49736,-1.824144 4.85359,-2.7362295 7.06867,-2.736259 1.32468,2.95e-5 2.42135,0.3474906 3.29003,1.042385 0.89034,0.69495 1.56355,1.845915 2.01962,3.452898 l 1.17268,-3.7134946 5.17935,-0.7817884 m -11.59653,1.693875 c -1.38987,2.8e-5 -2.86658,0.651517 -4.43014,1.954471 -2.21508,1.845913 -4.19126,4.58217 -5.92856,8.208778 -1.7156,3.626643 -2.57339,6.905808 -2.57338,9.837504 -1e-5,1.476717 0.36917,2.649399 1.10753,3.518047 0.73835,0.846941 1.58528,1.270409 2.54081,1.270406 2.36707,3e-6 4.94045,-1.748161 7.72016,-5.244497 3.71347,-4.647284 5.57022,-9.414017 5.57024,-14.300212 -2e-5,-1.845865 -0.35834,-3.181419 -1.07495,-4.006666 -0.71667,-0.825193 -1.6939,-1.237803 -2.93171,-1.237831"
                font-family="'Bitstream Vera Serif'"
                font-size="14.2956px"
                font-weight="700"
                transform="scale(1.00872,0.99135)"
                id="path13"/>
        <path
                fill="url(#h)"
                d="m 156.63352,9.0785158 -6.35203,22.0855222 -0.71664,2.96428 c -0.0652,0.282317 -0.0978,0.521197 -0.0977,0.71664 -2e-5,0.347465 0.10856,0.651493 0.32575,0.912086 0.1737,0.19545 0.39087,0.293173 0.65149,0.293171 0.28229,2e-6 0.65146,-0.173728 1.10753,-0.521192 0.84691,-0.629771 1.97616,-1.93275 3.38775,-3.908942 l 1.10754,0.781788 c -1.49846,2.258504 -3.04032,3.984951 -4.62559,5.179348 -1.58531,1.172683 -3.05117,1.759023 -4.39756,1.759024 -0.93382,-10e-7 -1.6396,-0.23888 -2.11734,-0.716639 -0.45606,-0.456043 -0.68408,-1.129249 -0.68406,-2.01962 -2e-5,-1.064098 0.23886,-2.464801 0.71664,-4.202113 l 0.68406,-2.443089 c -2.84486,3.7135 -5.46168,6.308601 -7.85046,7.78531 -1.7156,1.0641 -3.39862,1.59615 -5.04905,1.596151 -1.5853,-10e-7 -2.95343,-0.65149 -4.10439,-1.954471 -1.15097,-1.324694 -1.72645,-3.138007 -1.72645,-5.439944 0,-3.452889 1.03153,-7.090373 3.09458,-10.912463 2.08476,-3.843771 4.7233,-6.916631 7.91561,-9.218588 2.49736,-1.8241442 4.85359,-2.7362297 7.06867,-2.7362592 1.32468,2.95e-5 2.42135,0.3474907 3.29003,1.0423842 0.89034,0.694951 1.56355,1.845916 2.01962,3.452899 l 1.17268,-3.7134948 5.17935,-0.7817884 m -11.59653,1.6938752 c -1.38987,2.7e-5 -2.86658,0.651517 -4.43014,1.954471 -2.21508,1.845913 -4.19126,4.582169 -5.92856,8.208778 -1.7156,3.626643 -2.57339,6.905808 -2.57338,9.837503 -1e-5,1.476718 0.36917,2.649399 1.10753,3.518048 0.73835,0.846941 1.58528,1.270409 2.54081,1.270406 2.36707,3e-6 4.94045,-1.748161 7.72016,-5.244497 3.71347,-4.647285 5.57022,-9.414017 5.57024,-14.300212 -2e-5,-1.845865 -0.35834,-3.181419 -1.07495,-4.006666 -0.71667,-0.825193 -1.6939,-1.237804 -2.93171,-1.237831"
                font-family="'Bitstream Vera Serif'"
                font-size="14.2956px"
                font-weight="700"
                transform="scale(1.00872,0.99135)"
                id="path14"
                style="fill:url(#h)"/>
        <path
                fill="none"
                stroke="url(#i)"
                stroke-linecap="round"
                d="m 147.37561,29.83348 -0.69349,2.41642 c -0.47538,1.69878 -0.69352,3.04605 -0.6935,4.02736 -2e-5,0.79821 0.19204,1.33499 0.53588,1.67291 0.36633,0.36003 0.94013,0.55763 1.79679,0.55763 1.21639,0 2.58343,-0.518 4.12947,-1.64192 1.44076,-1.06683 2.85681,-2.64334 4.25555,-4.64696 l -0.31522,-0.18588 c -1.28063,1.71915 -2.37894,2.95939 -3.24684,3.59365 -0.49178,0.36821 -0.88703,0.61959 -1.38699,0.61959 -0.41137,1e-5 -0.79103,-0.2201 -1.04025,-0.49567 -0.29249,-0.34492 -0.44132,-0.77462 -0.44131,-1.20821 -3e-5,-0.24132 0.0536,-0.52779 0.12609,-0.83646 l 0.72502,-2.94307 6.17843,-21.128175 -4.16099,0.588615 -1.07177,3.37679 c -0.0718,0.20087 -0.2679,0.33272 -0.4844,0.32562 -0.21651,-0.0071 -0.40327,-0.15148 -0.46127,-0.3566 -0.44121,-1.52783 -1.10255,-2.55484 -1.89136,-3.15993 -0.77949,-0.61282 -1.74235,-0.898386 -2.99465,-0.898414 -2.10092,2.8e-5 -4.37856,0.835054 -6.84041,2.602294 -3.15637,2.23684 -5.77767,5.19966 -7.84914,8.95314 -2.05149,3.73521 -3.05769,7.26902 -3.05769,10.59507 0,2.19749 0.56903,3.87023 1.63918,5.08068 1.08841,1.21095 2.29088,1.76584 3.75119,1.76584 1.55874,0 3.1519,-0.4684 4.82296,-1.48702 2.32801,-1.41437 4.97033,-3.96836 7.81761,-7.62102"
                font-family="'Bitstream Vera Serif'"
                font-size="14.2956px"
                font-weight="700"
                opacity="0.17"
                id="path15"
                style="stroke:url(#i)"/>
        <path
                fill="none"
                stroke="url(#j)"
                stroke-linecap="round"
                d="m 156.70631,32.218917 -0.31522,-0.185878 c -1.28063,1.719152 -2.37894,2.959389 -3.24684,3.593648 -0.49178,0.368217 -0.88703,0.619595 -1.38699,0.619595 -0.41137,3e-6 -0.79103,-0.220101 -1.04025,-0.495676 -0.29249,-0.344911 -0.44132,-0.774611 -0.44131,-1.208209 -3e-5,-0.241317 0.0536,-0.527785 0.12609,-0.836453"
                font-family="'Bitstream Vera Serif'"
                font-size="14.2956px"
                font-weight="700"
                opacity="0.5"
                id="path16"
                style="stroke:url(#j)"/>
        <path
                fill="none"
                stroke="url(#k)"
                stroke-linejoin="round"
                d="m 135.125,10.25 c -1.55624,3e-5 -3.15405,0.706511 -4.78125,2.0625 -2.29654,1.913794 -4.33281,4.699033 -6.09375,8.375 a 0.54264722,0.54264722 0 0 0 0,0.03125 c -1.74044,3.679146 -2.59375,7.025519 -2.59375,10.0625 0,1.57214 0.41779,2.864705 1.25,3.84375 0.81205,0.931493 1.81631,1.468754 2.9375,1.46875 2.63709,4e-6 5.32973,-1.882282 8.15625,-5.4375 3.77157,-4.720005 5.65623,-9.600887 5.65625,-14.625 -2e-5,-1.914152 -0.33299,-3.390966 -1.1875,-4.375 -0.82253,-0.947091 -1.99007,-1.40622 -3.34375,-1.40625 z"
                font-family="'Bitstream Vera Serif'"
                font-size="14.2956px"
                font-weight="700"
                transform="matrix(1.00872,0,0,0.99135,10,0)"
                id="path17"
                style="stroke:url(#k)"/>
        <path
                fill="none"
                stroke="url(#l)"
                stroke-linecap="round"
                d="m 157.30524,9.634695 -4.16099,0.588615 -1.07177,3.376791"
                font-family="'Bitstream Vera Serif'"
                font-size="14.2956px"
                font-weight="700"
                opacity="0.45"
                id="path18"
                style="stroke:url(#l)"/>
        <path
                fill="none"
                stroke="url(#m)"
                stroke-linecap="round"
                d="m 151.12681,13.569121 c -0.44121,-1.527833 -1.10255,-2.554844 -1.89136,-3.159932 -0.77949,-0.612819 -1.74235,-0.898385 -2.99465,-0.898413 -2.10092,2.8e-5 -4.37856,0.835056 -6.84041,2.602298 -3.15637,2.236833 -5.77767,5.199659 -7.84914,8.953141 -2.05149,3.735204 -3.05769,7.269015 -3.05769,10.595067 0,2.197488 0.56903,3.870225 1.63918,5.080676"
                font-family="'Bitstream Vera Serif'"
                font-size="14.2956px"
                font-weight="700"
                opacity="0.45"
                id="path19"
                style="stroke:url(#m)"/>
    </g>
</svg>
